<?xml version="1.0" standalone="no"?>
<!DOCTYPE svg PUBLIC "-//W3C//DTD SVG 20010904//EN"
 "http://www.w3.org/TR/2001/REC-SVG-20010904/DTD/svg10.dtd">
<svg version="1.0" xmlns="http://www.w3.org/2000/svg"
 width="2048.000000pt" height="2048.000000pt" viewBox="0 0 2048.000000 2048.000000"
 preserveAspectRatio="xMidYMid meet">
<metadata>
Created by potrace 1.11, written by Peter Selinger 2001-2013
</metadata>
<g transform="translate(0.000000,2048.000000) scale(0.100000,-0.100000)"
fill="#000000" stroke="none">
<path d="M0 10240 l0 -10240 10240 0 10240 0 0 10240 0 10240 -10240 0 -10240
0 0 -10240z m10735 6429 c36 -21 22 3 263 -459 211 -407 991 -1908 1312 -2525
114 -220 341 -656 504 -970 163 -313 294 -575 292 -582 -3 -7 -211 -251 -462
-543 l-456 -530 -1884 0 c-1668 0 -1884 -2 -1884 -15 0 -13 214 -15 1870 -15
1441 0 1869 -3 1867 -12 -11 -54 76 39 498 531 l470 548 37 -112 c20 -62 50
-134 66 -161 16 -27 52 -86 79 -131 28 -45 69 -126 93 -180 23 -54 64 -143 90
-198 194 -407 239 -498 273 -554 21 -35 87 -157 146 -270 59 -113 156 -286
215 -384 99 -165 248 -449 274 -525 8 -23 21 -36 42 -44 17 -5 30 -14 28 -18
-2 -5 -84 -160 -183 -344 l-180 -336 -701 0 -701 0 4 25 c5 23 -59 155 -126
260 -68 108 -338 633 -403 785 -74 172 -136 287 -171 316 -17 15 -38 41 -47
60 -20 45 -126 152 -158 162 -30 8 -304 10 -452 2 -137 -6 -409 10 -445 26
-24 11 -134 14 -550 16 -286 2 -613 -1 -728 -6 -160 -7 -216 -6 -246 4 -28 9
-43 9 -59 1 -19 -10 -100 -160 -317 -586 -45 -88 -108 -212 -141 -275 -33 -63
-82 -162 -110 -220 -27 -58 -84 -170 -125 -250 -41 -80 -110 -221 -153 -315
-74 -158 -127 -260 -311 -590 -40 -71 -86 -154 -101 -184 l-29 -55 -385 -2
c-212 -2 -414 -7 -450 -13 -93 -15 -287 -13 -415 4 -144 19 -245 19 -271 0
-42 -32 -232 -5 -274 40 l-22 23 1116 1523 c775 1056 1113 1526 1106 1533 -7
7 -16 4 -29 -9 -10 -11 -506 -686 -1101 -1500 -596 -814 -1089 -1487 -1097
-1495 -11 -12 -13 -7 -14 35 0 28 -1 75 -2 105 -1 53 10 75 290 625 160 314
512 1007 783 1540 271 534 762 1499 1090 2145 328 646 920 1812 1315 2590 395
778 729 1434 742 1457 38 68 78 83 193 76 66 -4 104 -11 125 -24z m3959 -7571
c109 -211 203 -389 209 -396 20 -25 187 -375 187 -391 0 -10 14 -28 31 -40 80
-60 75 -180 -11 -238 -32 -22 -40 -23 -300 -23 -147 0 -523 -3 -837 -7 l-571
-6 -5 -44 c-13 -118 -168 -166 -249 -76 -15 17 -466 896 -471 918 -1 7 249 12
726 15 l728 5 177 332 c97 183 179 333 182 333 3 0 95 -172 204 -382z"/>
<path d="M10218 13349 c-177 -354 -324 -647 -326 -651 -4 -10 837 -10 1115 -1
l202 6 -23 41 c-13 23 -153 295 -312 606 -158 311 -298 583 -310 604 l-22 39
-324 -644z"/>
</g>
</svg>
